<svg width="24" height="24" viewBox="0 0 24 24" fill="none" xmlns="http://www.w3.org/2000/svg">
<path d="M19 21H11C10.7167 21 10.4793 20.904 10.288 20.712C10.0967 20.52 10.0007 20.2827 10 20C9.99933 19.7173 10.0953 19.48 10.288 19.288C10.4807 19.096 10.718 19 11 19H19V5H5V8C5 8.28333 4.904 8.521 4.712 8.713C4.52 8.905 4.28267 9.00067 4 9C3.71733 8.99933 3.48 8.90333 3.288 8.712C3.096 8.52067 3 8.28333 3 8V5C3 4.45 3.196 3.97933 3.588 3.588C3.98 3.19667 4.45067 3.00067 5 3H19C19.55 3 20.021 3.196 20.413 3.588C20.805 3.98 21.0007 4.45067 21 5V19C21 19.55 20.8043 20.021 20.413 20.413C20.0217 20.805 19.5507 21.0007 19 21ZM6.625 22C5.30833 22 4.18733 21.5373 3.262 20.612C2.33667 19.6867 1.87433 18.566 1.875 17.25C1.875 16.3 2.121 15.45 2.613 14.7C3.105 13.95 3.75067 13.3833 4.55 13H3C2.71667 13 2.47933 12.904 2.288 12.712C2.09667 12.52 2.00067 12.2827 2 12C1.99933 11.7173 2.09533 11.48 2.288 11.288C2.48067 11.096 2.718 11 3 11H7C7.28333 11 7.521 11.096 7.713 11.288C7.905 11.48 8.00067 11.7173 8 12V16C8 16.2833 7.904 16.521 7.712 16.713C7.52 16.905 7.28267 17.0007 7 17C6.71733 16.9993 6.48 16.9033 6.288 16.712C6.096 16.5207 6 16.2833 6 16V14.575C5.38333 14.7083 4.875 15.025 4.475 15.525C4.075 16.025 3.875 16.6 3.875 17.25C3.875 18.0167 4.14567 18.6667 4.687 19.2C5.22833 19.7333 5.87433 20 6.625 20C6.90833 20 7.146 20.096 7.338 20.288C7.53 20.48 7.62567 20.7173 7.625 21C7.62433 21.2827 7.52833 21.5203 7.337 21.713C7.14567 21.9057 6.90833 22.0013 6.625 22ZM11 17H13C13.2833 17 13.521 16.904 13.713 16.712C13.905 16.52 14.0007 16.2827 14 16C13.9993 15.7173 13.9033 15.48 13.712 15.288C13.5207 15.096 13.2833 15 13 15H11C10.7167 15 10.4793 15.096 10.288 15.288C10.0967 15.48 10.0007 15.7173 10 16C9.99933 16.2827 10.0953 16.5203 10.288 16.713C10.4807 16.9057 10.718 17.0013 11 17ZM11 13H16C16.2833 13 16.521 12.904 16.713 12.712C16.905 12.52 17.0007 12.2827 17 12C16.9993 11.7173 16.9033 11.48 16.712 11.288C16.5207 11.096 16.2833 11 16 11H11C10.7167 11 10.4793 11.096 10.288 11.288C10.0967 11.48 10.0007 11.7173 10 12C9.99933 12.2827 10.0953 12.5203 10.288 12.713C10.4807 12.9057 10.718 13.0013 11 13ZM8 9H16C16.2833 9 16.521 8.904 16.713 8.712C16.905 8.52 17.0007 8.28267 17 8C16.9993 7.71733 16.9033 7.48 16.712 7.288C16.5207 7.096 16.2833 7 16 7H8C7.71667 7 7.47933 7.096 7.288 7.288C7.09667 7.48 7.00067 7.71733 7 8C6.99933 8.28267 7.09533 8.52033 7.288 8.713C7.48067 8.90567 7.718 9.00133 8 9Z" fill="#FCFCFC"/>
</svg>
