<svg width="30" height="30" viewBox="0 0 30 30" fill="none" xmlns="http://www.w3.org/2000/svg">
<path d="M8.38388 6.61612C7.89573 6.12796 7.10427 6.12796 6.61612 6.61612C6.12796 7.10427 6.12796 7.89573 6.61612 8.38388L13.2323 15L6.61615 21.6161C6.128 22.1043 6.128 22.8957 6.61615 23.3839C7.10431 23.872 7.89576 23.872 8.38392 23.3839L15 16.7678L21.6161 23.3839C22.1043 23.8721 22.8957 23.8721 23.3839 23.3839C23.872 22.8957 23.872 22.1043 23.3839 21.6161L16.7678 15L23.3839 8.38389C23.8721 7.89573 23.8721 7.10427 23.3839 6.61612C22.8958 6.12796 22.1043 6.12796 21.6162 6.61612L15 13.2323L8.38388 6.61612Z" fill="white"/>
</svg>
