<svg width="24" height="24" viewBox="0 0 24 24" fill="none" xmlns="http://www.w3.org/2000/svg">
<path d="M6.29289 7.79289C6.68342 7.40237 7.31658 7.40237 7.70711 7.79289C8.09763 8.18342 8.09763 8.81658 7.70711 9.20711L5.91421 11H15C15.5523 11 16 11.4477 16 12C16 12.5523 15.5523 13 15 13H5.91421L7.70711 14.7929C8.09763 15.1834 8.09763 15.8166 7.70711 16.2071C7.31658 16.5976 6.68342 16.5976 6.29289 16.2071L3.5 13.4142C2.71895 12.6332 2.71895 11.3668 3.5 10.5858L6.29289 7.79289Z" fill="#FCFCFC"/>
<path fill-rule="evenodd" clip-rule="evenodd" d="M21 5C21 3.34315 19.6569 2 18 2H12C10.3431 2 9 3.34315 9 5V6C9 6.55228 9.44771 7 10 7C10.5523 7 11 6.55228 11 6V5C11 4.44772 11.4477 4 12 4H18C18.5523 4 19 4.44772 19 5V19C19 19.5523 18.5523 20 18 20H12C11.4477 20 11 19.5523 11 19V18C11 17.4477 10.5523 17 10 17C9.44771 17 9 17.4477 9 18V19C9 20.6569 10.3431 22 12 22H18C19.6569 22 21 20.6569 21 19V5Z" fill="#FCFCFC"/>
</svg>
